PathFileType	4	(X/Y/Z)	Kaydara	
DataRate	CameraRate	NumFrames	NumMarkers	Units	OrigDataRate	OrigDataStartFrame	OrigNumFrames	
120.00	120.00	4	72	mm	120.00	202	268	
Frame#	Time	Hips			RightUpLeg			RightLeg			RightFoot			RightFoot_End			LeftUpLeg			LeftLeg			LeftFoot			LeftFoot_End			Spine			Spine1			Spine2			Spine3			Neck			Head			Head_End			RightShoulder			RightArm			RightForeArm			RightHand			RightHandThumb1			RightHandThumb2			RightHandThumb3			RightHandThumb3_End			RightInHandIndex			RightHandIndex1			RightHandIndex2			RightHandIndex3			RightHandIndex3_End			RightInHandMiddle			RightHandMiddle1			RightHandMiddle2			RightHandMiddle3			RightHandMiddle3_End			RightInHandRing			RightHandRing1			RightHandRing2			RightHandRing3			RightHandRing3_End			RightInHandPinky			RightHandPinky1			RightHandPinky2			RightHandPinky3			RightHandPinky3_End			LeftShoulder			LeftArm			LeftForeArm			LeftHand			LeftHandThumb1			LeftHandThumb2			LeftHandThumb3			LeftHandThumb3_End			LeftInHandIndex			LeftHandIndex1			LeftHandIndex2			LeftHandIndex3			LeftHandIndex3_End			LeftInHandMiddle			LeftHandMiddle1			LeftHandMiddle2			LeftHandMiddle3			LeftHandMiddle3_End			LeftInHandRing			LeftHandRing1			LeftHandRing2			LeftHandRing3			LeftHandRing3_End			LeftInHandPinky			LeftHandPinky1			LeftHandPinky2			LeftHandPinky3			LeftHandPinky3_End			
		X1	Y1	Z1	X2	Y2	Z2	X3	Y3	Z3	X4	Y4	Z4	X5	Y5	Z5	X6	Y6	Z6	X7	Y7	Z7	X8	Y8	Z8	X9	Y9	Z9	X10	Y10	Z10	X11	Y11	Z11	X12	Y12	Z12	X13	Y13	Z13	X14	Y14	Z14	X15	Y15	Z15	X16	Y16	Z16	X17	Y17	Z17	X18	Y18	Z18	X19	Y19	Z19	X20	Y20	Z20	X21	Y21	Z21	X22	Y22	Z22	X23	Y23	Z23	X24	Y24	Z24	X25	Y25	Z25	X26	Y26	Z26	X27	Y27	Z27	X28	Y28	Z28	X29	Y29	Z29	X30	Y30	Z30	X31	Y31	Z31	X32	Y32	Z32	X33	Y33	Z33	X34	Y34	Z34	X35	Y35	Z35	X36	Y36	Z36	X37	Y37	Z37	X38	Y38	Z38	X39	Y39	Z39	X40	Y40	Z40	X41	Y41	Z41	X42	Y42	Z42	X43	Y43	Z43	X44	Y44	Z44	X45	Y45	Z45	X46	Y46	Z46	X47	Y47	Z47	X48	Y48	Z48	X49	Y49	Z49	X50	Y50	Z50	X51	Y51	Z51	X52	Y52	Z52	X53	Y53	Z53	X54	Y54	Z54	X55	Y55	Z55	X56	Y56	Z56	X57	Y57	Z57	X58	Y58	Z58	X59	Y59	Z59	X60	Y60	Z60	X61	Y61	Z61	X62	Y62	Z62	X63	Y63	Z63	X64	Y64	Z64	X65	Y65	Z65	X66	Y66	Z66	X67	Y67	Z67	X68	Y68	Z68	X69	Y69	Z69	X70	Y70	Z70	X71	Y71	Z71	X72	Y72	Z72	

202	1.675	8446.805	859.65103	-201.189	8479.506626645247	839.6340083706011	-239.11328121972483	8405.819357032124	435.40441213460485	-266.76174996818503	8496.576104488759	77.410417383405	-411.94987756770547	8490.179298593908	-25.686395243856378	-279.5633646889348	8420.747413891531	850.8491475029173	-149.87401323062278	8295.691187086848	461.9868098643987	-60.92773469426672	8220.476968735162	81.9152412773729	90.59401962785509	8283.532713659612	25.23607244073103	258.7697864689719	8415.7253718373	986.7697028253453	-257.4199656353921	8370.904529587717	1062.5481103117322	-297.6275873163716	8319.108614334613	1138.282279573559	-339.0328470670653	8261.831336341847	1204.809351330324	-378.37029215438986	8199.604494890096	1275.6023750555391	-416.25557899130575	8155.627083207882	1349.45802381184	-380.0037134300013	8135.012132207404	1443.4737378987998	-256.28322194951716	8225.235415237197	1253.215498221993	-414.81939019403774	8251.531858572516	1247.1479776758265	-448.12435831164004	8338.5017625631	1105.0042723527577	-394.556615602931	8381.680788998894	1108.3960107540986	-446.880719579252	8389.510933495967	1134.4759072334602	-446.9196870459848	8393.93098295235	1150.960979848645	-456.69470200771144	8397.336009748878	1159.2597270230572	-463.816817897574	8400.454289956204	1163.4563799039686	-470.02351845220005	8392.011267073745	1125.781382864924	-447.16743011685776	8406.369465351689	1139.1765376573576	-452.6033924224875	8413.102648785454	1146.8030737604483	-461.10976881283636	8414.119516219916	1152.16616938737	-468.3126666384602	8412.823488022055	1157.0245431635612	-475.56588582846496	8392.245753302956	1116.581525328454	-448.0589333991811	8406.378071321551	1124.671033837356	-453.84187575687315	8413.705609568577	1131.7336327034673	-463.2299233943985	8414.922959016769	1137.5996312664151	-471.9707780714038	8413.500264945573	1142.6217592555956	-479.93182239898545	8392.083101818094	1109.7390845261928	-448.50524057103326	8404.71870787107	1111.0464746392743	-453.944198427165	8411.062586463004	1115.9022189119144	-462.2264787549477	8412.214062724555	1120.870043744322	-470.71063752877245	8410.865585402658	1125.264948416274	-478.22109788576086	8391.179662865976	1101.4719666628337	-449.2152452192403	8402.344420767782	1097.5756909008717	-454.4928929614247	8407.302155944195	1099.4300834875442	-461.25706956520816	8408.08293096622	1102.0697653264835	-467.50931992526887	8406.854378094798	1105.3967087232884	-474.1991257952335	8215.172006459232	1253.0094908224717	-392.18024154545253	8203.0371081235	1226.2967197283324	-354.3609195825024	8261.476345536603	1124.728645547584	-412.6695407536079	8334.117926160641	1107.9163350846097	-383.3724608548799	8338.711045967077	1132.4455802184234	-384.9587134314553	8350.19947903065	1136.4560527679553	-394.52846427766707	8358.04601345958	1136.5157979126168	-402.5968048988575	8364.455579656715	1134.2274705178115	-410.5240860181655	8337.902117198792	1126.468409355742	-389.8519462694567	8346.052040716744	1137.884248875615	-406.1970548013738	8355.34653451513	1137.4428280688478	-419.09472685828865	8362.606611094512	1133.906023679241	-425.53725312478906	8369.615222129236	1128.7780396039816	-429.80670084832286	8337.371773539082	1118.2387674714032	-393.17399366499524	8345.033066970738	1124.9244095806823	-410.9129848182539	8355.083320667813	1123.309347771329	-425.37413188381043	8363.798245667123	1118.4984361603342	-433.33261285153725	8371.44550354924	1112.6230821433671	-438.09448954167846	8336.752939867893	1112.202764765144	-395.10088318394554	8342.975965872445	1113.1582438276487	-412.662360943104	8351.630211707246	1110.5808079933618	-425.6346089997784	8359.980376301259	1105.3190940437928	-433.5065446276947	8367.14415523534	1099.5004020446365	-438.07647782550936	8336.088542456357	1104.3673011044266	-396.8721034275385	8341.267921129209	1100.6501963094574	-414.0664315727565	8348.006313297452	1096.7566698894277	-424.95146261907905	8354.004271531312	1092.0337103254465	-430.9338639477259	8360.296871491142	1086.3699428791306	-435.12053775324574
203	1.683	8446.805	859.65103	-201.189	8479.140029990864	839.5033008592529	-239.19653119852515	8405.863881081066	435.2081784245086	-266.7807388346258	8496.907398673737	77.60867151604772	-412.60232826490767	8490.95511026181	-25.65360127941843	-280.3988080209417	8421.099402712882	850.9760458980455	-149.79047248154765	8296.026935188496	462.1560151251486	-60.672233895848606	8220.689819627125	82.00708228700478	90.60567436766956	8283.887099635333	25.199369519252443	258.69220557897984	8415.811380489247	986.7945258173396	-257.415730802663	8371.032690832022	1062.62490745466	-297.5811287096144	8319.2863283337	1138.4292866571436	-338.93414918111364	8262.057182743032	1205.042300100771	-378.2094967799108	8199.880590672361	1275.9235026584413	-416.0228728830601	8155.86633458061	1349.7831077416038	-379.835660366457	8135.29265567982	1443.8723842139973	-256.18239738233405	8225.390019088612	1253.4402604417746	-414.57785754517613	8251.282670724653	1247.1657282817152	-447.6615972699218	8338.065220753815	1105.4237683352794	-393.4724573635355	8380.672668978956	1109.0138418723866	-445.28184434929335	8388.502326168036	1135.1325850840303	-445.2689545766759	8392.959904014537	1151.644292100967	-454.9667029930447	8396.383121022593	1159.95894648851	-462.0333318597054	8399.509769249305	1164.1666012485227	-468.19233931211426	8390.96737623678	1126.4331707368385	-445.50697691358556	8405.270717029103	1139.866037988909	-450.83803658236275	8412.001832034002	1147.5134067938263	-459.26577915807246	8413.04796104115	1152.8857087134957	-466.4262064217317	8411.796757867169	1157.749176138897	-473.6486005806311	8391.183880092563	1117.2245603304368	-446.39729825145673	8405.252954791278	1125.34611955509	-452.0772840243954	8412.576086277637	1132.4301670414682	-461.379703810195	8413.827707236043	1138.3066564852584	-470.06940440892464	8412.453558441737	1143.334058300616	-477.9967619391556	8391.009494452648	1110.3750184554683	-446.8454726647526	8403.576979222937	1111.7051003686825	-452.19385590792984	8409.914924078823	1116.5781759380716	-460.40184584784106	8411.098346611701	1121.5553960095908	-468.83684472431355	8409.794987484729	1125.9549162955973	-476.31571737508705	8390.097503811612	1102.098267668828	-447.5604689356313	8401.193050364618	1098.2170298397914	-452.75817065485876	8406.143069283684	1100.0830743516774	-459.4637884563474	8406.945711902836	1102.728532149734	-465.6806313454832	8405.75630105873	1106.058944430772	-472.34271460933223	8215.541430047151	1253.364304453747	-392.0177276039436	8203.757960089619	1226.9835615362542	-354.3125780054777	8261.806745934686	1125.33705062727	-411.76410265532667	8333.549270337644	1108.4538364864698	-382.41723150064763	8338.153873394816	1133.006375072564	-383.96796512055334	8349.632776795233	1137.00878248088	-393.4312593136678	8357.47699797175	1137.0596576109208	-401.41902874806215	8363.888334123434	1134.7611524534927	-409.27363637743287	8337.365412546913	1127.0221503203518	-388.83918399184233	8345.563237412593	1138.4400357995573	-405.05382179362704	8354.870144161609	1137.9868362443524	-417.8376675746063	8362.119215293274	1134.4379535717349	-424.21215180896115	8369.106088166034	1129.2967646244592	-428.42711839977227	8336.84416565295	1118.7829608648863	-392.1471762766108	8344.557107030963	1125.465438027238	-409.7513143610684	8354.621924521676	1123.8362403538438	-424.0867942095971	8363.324060680608	1119.0101411027022	-431.96248432919424	8370.947770706276	1113.1200392568571	-436.6644081882495	8336.230786709755	1112.7402737940156	-394.06763110052407	8342.50556681118	1113.6874450951705	-411.5031529964339	8351.173463636438	1111.0963808637136	-424.36458736066794	8359.51180063608	1105.8193228465466	-432.15598399397373	8366.653679473991	1099.986435126075	-436.66922388757166	8335.569317186944	1104.896155034647	-395.83390850370387	8340.798824557576	1101.1664750660173	-412.91017775797616	8347.549413647648	1097.260031032083	-423.70502178167567	8353.539357047026	1092.524909802804	-429.6279754899439	8359.812909459615	1086.848009209196	-433.764024155403
204	1.692	8446.805	859.65103	-201.189	8478.775473183263	839.3729050405719	-239.2800910906339	8405.907502452765	435.0131068379652	-266.8027526338217	8497.234342266802	77.8053926820282	-413.25517266470445	8491.723090643163	-25.621342861515785	-281.23371003214044	8421.44953513345	851.1027320493499	-149.7065331043523	8296.361137263224	462.3245215846695	-60.418335524309924	8220.902038920893	82.09755696959425	90.61461108984156	8284.238768720355	25.161057032972508	258.61245403266537	8415.896463179064	986.8188933523771	-257.4118666396825	8371.159301734682	1062.7004812385662	-297.53549457048365	8319.46170655361	1138.574009734844	-338.8367435776367	8262.279893414403	1205.2717194889015	-378.0503681762438	8200.152711559578	1276.239809123079	-415.79224333361515	8156.101386701389	1350.1032314840836	-379.6695335578302	8135.569200484576	1444.2659666602556	-256.0832525874078	8225.541320741908	1253.6604707412766	-414.33887768371477	8251.031243087973	1247.1771257209346	-447.2039306810569	8337.621407565724	1105.8326862698643	-392.39424032089187	8379.655138978631	1109.6105896657643	-443.6855783600203	8387.483567529449	1135.7659433725964	-443.62192059947273	8391.977407400082	1152.3025182492852	-453.24214161431246	8395.417957679738	1160.6319527185988	-460.2528994966275	8398.55228088258	1164.8497579065986	-466.36372069172603	8389.913404781664	1127.061751440018	-443.8496825860749	8404.16074243376	1140.5296927877685	-449.0755583288256	8410.888728715103	1148.196335908369	-457.4240138838589	8411.963384299976	1153.5771484309835	-464.54150000816804	8410.756346658594	1158.4453179373993	-471.73263614574324	8390.112021517483	1117.8447735759291	-444.7382598003973	8404.116787056892	1125.9960185258903	-450.3147106750541	8411.434370746278	1133.099873882292	-459.5307159941655	8412.71938412731	1138.9860435603116	-468.16865934799574	8411.39306272909	1144.0183046967325	-476.0618390859258	8389.926000860416	1110.9884675784228	-445.1879147202757	8402.42450282652	1112.3394064723666	-450.44487890935903	8408.755537374389	1117.228448091085	-458.57781825091973	8409.97006776622	1122.214315901259	-466.9630358140092	8408.71115636494	1126.6180783792424	-474.4098403275762	8389.00558545396	1102.7025696946741	-445.90743929715836	8400.031217098147	1098.8349766106526	-451.02414571418984	8404.972769513983	1100.7116889816093	-457.67048324849435	8405.796683550681	1103.3624303198958	-463.85141087834444	8404.64582964793	1106.6960110872	-470.48531457274703	8215.906771321834	1253.7149599509073	-391.8565220474987	8204.47409425206	1227.6659515333374	-354.2624729749821	8262.132868563194	1125.9361179024452	-410.85892543210093	8332.978094861206	1108.9741056370278	-381.4636620659649	8337.592603506437	1133.5481946588081	-382.978968632149	8349.06087742405	1137.5417859951658	-392.3365239464758	8356.90219858371	1137.5833148539646	-400.2442110127149	8363.314968787732	1135.2742748425464	-408.02654321507066	8336.825094572843	1127.5568066960286	-387.82807594894155	8345.069872124724	1138.9745861925646	-403.91248118799297	8354.3886035571	1138.5087341246024	-416.58302135998247	8361.626270665256	1134.9477012902194	-422.8899725918243	8368.591053316415	1129.793565910571	-427.05100438528564	8336.313468140354	1119.3083012116838	-391.12199167788464	8344.077415415464	1125.9856395508136	-408.5914972939395	8354.156227050773	1124.3413908733626	-422.80187491774063	8362.845128181207	1119.5000356486146	-430.5953867993956	8370.444921992077	1113.5954776922556	-435.23795488062376	8335.70593837673	1113.2591418181028	-393.0359869495115	8342.032240320952	1114.196401547478	-410.34571848955574	8350.713366502207	1111.5909536190577	-423.09682807450287	8359.039485285859	1106.2985081071981	-430.80827474688596	8366.159136520342	1100.4517096102002	-435.2653818273631	8335.047876866613	1105.4067255580208	-394.7973145483185	8340.327596447538	1101.6631975077062	-411.75566032167814	8347.090162652648	1097.7433041402992	-422.4607026145531	8353.071863291134	1092.996024929089	-428.3246353411692	8359.326110839418	1087.3062639526263	-432.4105536412148
205	1.7	8446.805	859.65103	-201.189	8478.412995170336	839.2428338817903	-239.363953768963	8405.950214969971	434.8192183592582	-266.8277961875402	8497.55689469388	78.00055886661892	-413.9083502273593	8492.483149749465	-25.589624249362515	-282.0679908958268	8421.797773980586	851.2291935641863	-149.62220206231885	8296.693758365624	462.4923118002398	-60.1660670905885	8221.113605229222	82.18665369137516	90.62082276122992	8284.587681674499	25.12113492618115	258.5305343869888	8415.980609791224	986.842802105263	-257.4083743413658	8371.284346851116	1062.7748217737294	-297.49069105618685	8319.63472716955	1138.716429992233	-338.74064235109495	8262.499440258214	1205.4975798789733	-377.8929251024701	8200.42082289485	1276.551253719508	-415.5637167679577	8156.332207874554	1350.4183536238106	-379.50535301565134	8135.841731508057	1444.6544366656017	-255.98580070468336	8225.689298443178	1253.876098039204	-414.1024789119876	8250.777594227424	1247.1821544265908	-446.75141324334453	8337.170348142232	1106.2309635070017	-391.3220795262726	8378.628273291795	1110.1861498034953	-442.0920779689552	8386.454730311742	1136.3758692314177	-441.9787487237778	8390.983559557048	1152.9355390721516	-451.5211881877899	8394.440582594176	1161.2786225387722	-458.47569551485424	8397.581885435982	1165.5057238115687	-464.5378407176011	8388.849428913498	1127.6670128036906	-442.1957104914623	8403.039620445175	1141.1673805618082	-447.31613029678493	8409.763415598687	1148.851734249052	-455.5846516133644	8410.865858414747	1154.2403593067074	-462.658728995376	8409.70232116229	1159.1128380024513	-469.81817607849007	8389.030255681242	1118.44205455474	-443.08198029524675	8402.969649858453	1126.6206120456834	-448.554326408227	8410.28054264943	1133.7426289206264	-457.6831370032063	8411.598064229143	1139.6376654375017	-466.2687234491919	8410.318846216715	1144.6743700002305	-474.1272365000114	8388.832700464007	1111.5793227857469	-443.5327279721332	8401.261362643392	1112.9492776839372	-448.6974353720904	8407.584508747157	1117.8529154918217	-456.7545692519179	8408.829303756385	1122.8466810318216	-465.08938736206574	8407.614163907638	1127.2543110408697	-472.50364523323924	8387.903988295373	1103.2847655959285	-444.2563160625036	8398.859006455012	1099.429419595925	-449.2909831580364	8403.79134121707	1101.3158125131858	-455.8773229098617	8404.635927137564	1103.9713433594718	-462.02182972125934	8403.523040134287	1107.3077912421343	-468.6270984963606	8216.267986608147	1254.061414866839	-391.6966430086786	8205.185432464406	1228.3438154049813	-354.2106051303182	8262.454672889633	1126.5257697227878	-409.9540948550193	8332.404447703275	1109.4770542198191	-380.51184616564314	8337.027279753629	1134.0709446633825	-381.9918211362541	8348.483822856913	1138.054968099381	-391.2443669407414	8356.321656163422	1138.086674211152	-399.07246911303537	8362.735523607778	1135.7667424189597	-406.7829316641547	8336.281205847716	1128.0722845874825	-386.81872116942503	8344.571980822844	1139.4878012463623	-402.7731448266957	8353.901946202264	1139.0084220812566	-415.33091191401974	8361.127810870174	1135.4351681735916	-421.5708466910904	8368.070152514452	1130.268346598125	-425.67849634405087	8335.77972385158	1119.814696015191	-390.0985401716583	8343.594028686075	1126.4849176186353	-407.4336471060244	8353.686262183619	1124.824702105993	-421.5195005663904	8362.36148231857	1119.9680238388833	-429.23145595310814	8369.936992964876	1114.0493035040558	-433.81527225698807	8335.17843806177	1113.7592774296318	-392.0060515834614	8341.556024189133	1114.685019032462	-409.19017050100325	8350.249955869123	1112.064431719775	-421.83145572339004	8358.563466066922	1106.7565566201517	-429.4635503376586	8365.660563533376	1100.8961342388584	-433.86509165658345	8334.524265455799	1105.8989228587218	-393.76242286147874	8339.854276195363	1102.1402721985312	-410.6029919787181	8346.628598065501	1098.206397815158	-421.2186271667148	8352.601828266452	1093.4469654464615	-427.0239720788412	8358.836514860797	1087.744618673406	-431.06026063373866
